<svg id="Layer_1" data-name="Layer 1" xmlns="http://www.w3.org/2000/svg" viewBox="0 0 323 52.59"><defs><style>.cls-1{fill:#231f20;}</style></defs><title>Artboard 1</title><path class="cls-1" d="M31.89,39V38.4A10,10,0,0,0,34,38.08a8.65,8.65,0,0,0,1.75-.66,5.63,5.63,0,0,0,1.3-.91,3.67,3.67,0,0,0,.8-1.07,6.8,6.8,0,0,0,.49-1.74,19.19,19.19,0,0,0,.22-2.16q0-1.76.05-3.45t0-3.34q0-1.66,0-3.32V2.82L26.28,30.47q-.18.37-.46,1l-.61,1.44-.67,1.61-.63,1.54-.51,1.25q-.22.54-.3.75h-.34q-1.71-4-3.42-7.94T16,22.58l-3-6.81q-1.41-3.19-2.53-5.67L8.61,6l-1-2.26Q7.58,6,7.58,8t0,3.81q0,1.82,0,3.57t0,3.65q0,1.9,0,4.06v4.79q0,2.53.14,4.38a8.36,8.36,0,0,0,.79,3.13,4.69,4.69,0,0,0,2,2,10.63,10.63,0,0,0,3.67,1.05V39H0v-.53a9.25,9.25,0,0,0,3.07-1.11,5.4,5.4,0,0,0,1.91-2,9.7,9.7,0,0,0,1-3.21,38,38,0,0,0,.38-4.68q.08-2.32.14-5.48t.07-6.77V10.49q0-1,0-2.1t0-2.65A5,5,0,0,0,5.9,3.29,4.6,4.6,0,0,0,4.49,1.8,5.9,5.9,0,0,0,2.75,1Q1.84.79,1.19.68V.16H12.67l12.9,29.36q1.61-3.42,3.15-6.85t2.95-6.58q1.41-3.16,2.62-6l2.12-4.91,1.47-3.45q.57-1.33.7-1.62H50.06V.68a7.75,7.75,0,0,0-1.94.26,4.82,4.82,0,0,0-1.42.65,4.08,4.08,0,0,0-1,.95,5.3,5.3,0,0,0-.63,1.12,6.37,6.37,0,0,0-.26,1.2q-.11.75-.17,1.66t-.09,1.9l-.05,1.94q-.05,2.61-.05,5V26.06q0,2.9.05,6.09a16.57,16.57,0,0,0,.13,2.06,5,5,0,0,0,.45,1.66,2.87,2.87,0,0,0,.39.54,4.61,4.61,0,0,0,1,.84,8.36,8.36,0,0,0,1.62.8,7.15,7.15,0,0,0,2.28.42V39Z"/><path class="cls-1" d="M76.23,25.78a13.5,13.5,0,0,1-1,5.21,13.83,13.83,0,0,1-2.75,4.28,13.35,13.35,0,0,1-4,2.91,11.22,11.22,0,0,1-4.85,1.08,12.55,12.55,0,0,1-2.9-.36A13.3,13.3,0,0,1,55,36a11.91,11.91,0,0,1-2.24-2.61A13.32,13.32,0,0,1,51.28,30a14.67,14.67,0,0,1-.57-4.21A12.6,12.6,0,0,1,51.65,21a13,13,0,0,1,2.63-4.1,12.94,12.94,0,0,1,13.8-3.15,12.56,12.56,0,0,1,4,2.4,12.22,12.22,0,0,1,3,4A13,13,0,0,1,76.23,25.78Zm-5-.05A20.84,20.84,0,0,0,71,23.15a17.43,17.43,0,0,0-.55-2.69,14.59,14.59,0,0,0-1-2.51A8.77,8.77,0,0,0,68,15.83a6.76,6.76,0,0,0-2-1.46,6.17,6.17,0,0,0-2.63-.54,5.12,5.12,0,0,0-3.2,1.08,9.08,9.08,0,0,0-2.38,2.82,15.26,15.26,0,0,0-1.5,3.95,19.13,19.13,0,0,0-.53,4.45,23.62,23.62,0,0,0,.45,4.67,13.25,13.25,0,0,0,1.4,3.91A7.7,7.7,0,0,0,60,37.4a6.4,6.4,0,0,0,3.63,1,5.23,5.23,0,0,0,2.49-.58,6.59,6.59,0,0,0,1.94-1.57A9.76,9.76,0,0,0,69.5,34a17.35,17.35,0,0,0,1-2.7A19.89,19.89,0,0,0,71,28.43,22.83,22.83,0,0,0,71.2,25.73Z"/><path class="cls-1" d="M77.92,39V38.4q1.24-.08,2-.2a5.24,5.24,0,0,0,1.25-.32,1.37,1.37,0,0,0,.65-.49,1.3,1.3,0,0,0,.18-.71v-31A2.05,2.05,0,0,0,82,5a1.14,1.14,0,0,0-.45-.5l-.63-.36L80,3.7l-.87-.47q-.43-.22-.75-.36V2.55L86.14,0h.37V36.95a1.14,1.14,0,0,0,.24.8,1.45,1.45,0,0,0,.72.37,6.33,6.33,0,0,0,1.25.14q.76,0,1.79.13V39Z"/><path class="cls-1" d="M93.29,39V38.4q1.24-.08,2-.2a5.24,5.24,0,0,0,1.25-.32,1.37,1.37,0,0,0,.65-.49,1.3,1.3,0,0,0,.18-.71v-31A2.05,2.05,0,0,0,97.32,5a1.14,1.14,0,0,0-.45-.5l-.63-.36-.83-.47-.87-.47q-.43-.22-.75-.36V2.55L101.51,0h.37V36.95a1.14,1.14,0,0,0,.24.8,1.45,1.45,0,0,0,.72.37,6.33,6.33,0,0,0,1.25.14q.76,0,1.79.13V39Z"/><path class="cls-1" d="M99.72,51.56a5.06,5.06,0,0,1-1.51-.21,3.47,3.47,0,0,1-1.15-.59,2.82,2.82,0,0,1-.74-.88,2.24,2.24,0,0,1-.26-1.05,2.41,2.41,0,0,1,.13-.76,2.68,2.68,0,0,1,.38-.74,1.88,1.88,0,0,1,.65-.55,1.92,1.92,0,0,1,.92-.21,1.86,1.86,0,0,1,1.29.45,6.07,6.07,0,0,1,.9,1q.4.55.78,1a1.18,1.18,0,0,0,.93.45,6.65,6.65,0,0,0,3.21-.9,15.61,15.61,0,0,0,3-2.19,19.18,19.18,0,0,0,2.46-2.71,11.31,11.31,0,0,0,1.47-2.5q.37-4,.57-7.33t.2-6.2V25q0-1.21,0-2.37t-.12-2.38q-.08-1.22-.24-2.73-.08-.61-.47-.61-.24,0-.71.45a13.86,13.86,0,0,0-1.11,1.21q-.63.76-1.41,1.79t-1.67,2.16l-.45-.37q1.18-2,2.38-3.66a29.47,29.47,0,0,1,2.3-2.84,12.86,12.86,0,0,1,2.07-1.84,3.12,3.12,0,0,1,1.67-.66.81.81,0,0,1,.76.42,4.78,4.78,0,0,1,.42,1.19q.08.42.18,1.41t.21,2.28q.1,1.29.17,2.77T117,24q0,2.66-.09,5.79T116.34,37q1.5-2.08,2.88-4.44a49.46,49.46,0,0,0,2.42-4.66,34.57,34.57,0,0,0,1.66-4.4,13.15,13.15,0,0,0,.62-3.65,5.22,5.22,0,0,0-.2-1.58,6.92,6.92,0,0,0-.45-1.08q-.25-.47-.45-.95a3.1,3.1,0,0,1-.2-1.19,1.76,1.76,0,0,1,.63-1.42,2.1,2.1,0,0,1,1.37-.53,2.24,2.24,0,0,1,1.8.72,2.76,2.76,0,0,1,.62,1.86,11.3,11.3,0,0,1-.25,2.17,22.16,22.16,0,0,1-1,3.23q-.79,2.19-1.75,4.32t-2.19,4.37q-1.22,2.24-2.78,4.63t-3.53,5.11A49,49,0,0,1,111,44.94a33.62,33.62,0,0,1-4.29,3.75,17.82,17.82,0,0,1-3.84,2.17A8.93,8.93,0,0,1,99.72,51.56Z"/><path class="cls-1" d="M175.94.68a7.81,7.81,0,0,0-4.6,2.19,14,14,0,0,0-1.74,2q-.83,1.17-1.83,2.67-.45.66-1.11,1.69l-1.44,2.23L163.63,14,162,16.47l-1.45,2.2-1.09,1.65V31.18q0,.76,0,1.56t.08,1.49a10.87,10.87,0,0,0,.18,1.25,2.24,2.24,0,0,0,.33.84,3.47,3.47,0,0,0,.95.95,6,6,0,0,0,1.16.61,7.67,7.67,0,0,0,1.24.37l1.24.24V39H148v-.53q.71-.08,1.3-.18A5.67,5.67,0,0,0,150.5,38a5.06,5.06,0,0,0,1.09-.62,7.46,7.46,0,0,0,1.15-1.08,2.06,2.06,0,0,0,.41-.92,11.49,11.49,0,0,0,.22-1.45q.08-.82.09-1.74t0-1.79q.05-1.5.08-3.58t0-5l-.63-1-1.32-2.15-1.74-2.82-1.88-3L146.29,9.9,145,7.8q-1-1.58-1.86-2.86a18.69,18.69,0,0,0-1.7-2.2,7.64,7.64,0,0,0-1.74-1.45,4.48,4.48,0,0,0-2-.61V.16h16.43V.68l-1.62.18a7.51,7.51,0,0,0-1.51.34,3.08,3.08,0,0,0-1.12.65A1.43,1.43,0,0,0,149.45,3a2.54,2.54,0,0,0,.22.9q.22.55.57,1.23T151,6.5L151.87,8l1.41,2.35,1.78,2.93L157,16.42l1.9,3.07L160,17.85l1.32-2,1.41-2.2L164,11.46l1.19-1.93.88-1.46.58-1q.34-.57.65-1.2a10.59,10.59,0,0,0,.51-1.28,3.9,3.9,0,0,0,.21-1.2,1.93,1.93,0,0,0-.43-1.33,3,3,0,0,0-1.11-.76A6.26,6.26,0,0,0,165,.94L163.48.68V.16h12.46Z"/><path class="cls-1" d="M193,25.78A13.5,13.5,0,0,1,192,31a13.82,13.82,0,0,1-2.75,4.28,13.35,13.35,0,0,1-4,2.91,11.22,11.22,0,0,1-4.85,1.08,12.56,12.56,0,0,1-2.9-.36A13.31,13.31,0,0,1,171.84,36a11.91,11.91,0,0,1-2.24-2.61,13.32,13.32,0,0,1-1.53-3.4,14.67,14.67,0,0,1-.57-4.21,12.6,12.6,0,0,1,.93-4.78,13,13,0,0,1,2.63-4.1,12.94,12.94,0,0,1,13.8-3.15,12.56,12.56,0,0,1,4,2.4,12.21,12.21,0,0,1,3,4A13,13,0,0,1,193,25.78Zm-5-.05a20.77,20.77,0,0,0-.17-2.58,17.32,17.32,0,0,0-.55-2.69,14.58,14.58,0,0,0-1-2.51,8.8,8.8,0,0,0-1.49-2.12,6.75,6.75,0,0,0-2-1.46,6.17,6.17,0,0,0-2.63-.54,5.12,5.12,0,0,0-3.2,1.08,9.07,9.07,0,0,0-2.38,2.82,15.26,15.26,0,0,0-1.5,3.95,19.13,19.13,0,0,0-.53,4.45A23.62,23.62,0,0,0,173,30.8a13.26,13.26,0,0,0,1.4,3.91,7.7,7.7,0,0,0,2.45,2.69,6.4,6.4,0,0,0,3.63,1,5.23,5.23,0,0,0,2.49-.58,6.59,6.59,0,0,0,1.94-1.57A9.78,9.78,0,0,0,186.3,34a17.25,17.25,0,0,0,1-2.7,19.76,19.76,0,0,0,.55-2.84A22.76,22.76,0,0,0,188,25.73Z"/><path class="cls-1" d="M214.08,39.16h-.37V33.6l-.05-.05a17.33,17.33,0,0,1-1.43,1.94,12.34,12.34,0,0,1-2,1.86,10.61,10.61,0,0,1-2.42,1.38,7.36,7.36,0,0,1-2.82.54,6.09,6.09,0,0,1-5.1-2.09,9.57,9.57,0,0,1-1.65-6V18c0-.14,0-.34,0-.59s0-.51,0-.78,0-.51-.08-.75a1.83,1.83,0,0,0-.13-.51,1.52,1.52,0,0,0-.61-.71,2.89,2.89,0,0,0-.88-.34,5.62,5.62,0,0,0-1-.12q-.55,0-1-.07v-.66h8.35v15.7a16.49,16.49,0,0,0,.25,3.07,5.75,5.75,0,0,0,.84,2.17,3.56,3.56,0,0,0,1.58,1.29,6.29,6.29,0,0,0,2.46.42,6,6,0,0,0,3.49-1A7,7,0,0,0,212.66,34q.55-.6,1.05-1.24V17.48c0-.18,0-.39,0-.63s0-.49-.08-.74a4.74,4.74,0,0,0-.16-.71,2.23,2.23,0,0,0-.26-.58,6.35,6.35,0,0,0-1.76-.42l-2.29-.26v-.66h9.06v21.3a1.86,1.86,0,0,0,.09.66,1.1,1.1,0,0,0,.46.47,5.19,5.19,0,0,0,.62.34l.8.37L221,37l.74.34v.32Z"/><path class="cls-1" d="M239.71,39V38.4a10,10,0,0,0,2.33-.34,1.08,1.08,0,0,0,.86-1.11V23.36a13,13,0,0,0-.29-2.84,6.35,6.35,0,0,0-.91-2.2,4.22,4.22,0,0,0-1.61-1.41,5.23,5.23,0,0,0-2.38-.5,6,6,0,0,0-1.61.2,5.92,5.92,0,0,0-1.36.57,7.94,7.94,0,0,0-1.28.92q-.63.55-1.37,1.29V37.05a1.51,1.51,0,0,0,.37.79,1.42,1.42,0,0,0,.65.37,4.69,4.69,0,0,0,.87.14q.49,0,1,.12V39H224.59v-.53a7.32,7.32,0,0,0,2.15-.51,1.28,1.28,0,0,0,.88-1.22V18.17a2.05,2.05,0,0,0-.08-.63,1.14,1.14,0,0,0-.45-.5q-.5-.29-1.15-.62t-1.3-.62v-.32L231.73,13H232v5.82l.11.05a16.53,16.53,0,0,1,1.48-2,13.22,13.22,0,0,1,2-1.91,11.59,11.59,0,0,1,2.48-1.44,7.09,7.09,0,0,1,2.8-.57,6,6,0,0,1,2.77.62,5.92,5.92,0,0,1,2,1.71A7.66,7.66,0,0,1,247,17.91a12.57,12.57,0,0,1,.42,3.34V37.11a.77.77,0,0,0,.34.65,2.68,2.68,0,0,0,.83.39,7.09,7.09,0,0,0,1.07.22l1.05.16V39Z"/><path class="cls-1" d="M280.48,15.91a2.06,2.06,0,0,1-.57,1.44,1.8,1.8,0,0,1-1.38.62,3,3,0,0,1-1-.26q-.66-.26-1.43-.65t-1.58-.83q-.8-.45-1.46-.84l-.21.21.75,1.17a9.3,9.3,0,0,1,.62,1.16,7,7,0,0,1,.42,1.28,6.81,6.81,0,0,1,.16,1.53,8.41,8.41,0,0,1-.78,3.73,7.16,7.16,0,0,1-2.23,2.66,10,10,0,0,1-3.52,1.59,18.83,18.83,0,0,1-4.65.53,11.81,11.81,0,0,1-1.54-.11,14.53,14.53,0,0,0-1.86-.11,5.83,5.83,0,0,0-2.76.8,2,2,0,0,0-1,1.78A2,2,0,0,0,257,33a3.77,3.77,0,0,0,1.34.88,7,7,0,0,0,1.79.45,15.7,15.7,0,0,0,1.9.12h8.64a9.22,9.22,0,0,1,3.38.59,7.73,7.73,0,0,1,2.58,1.62,7.15,7.15,0,0,1,1.65,2.41,7.66,7.66,0,0,1,.58,3,8.17,8.17,0,0,1-1.05,4,11,11,0,0,1-2.92,3.34,14.61,14.61,0,0,1-4.45,2.29,18.07,18.07,0,0,1-5.64.84,27.58,27.58,0,0,1-5.23-.45,13.83,13.83,0,0,1-3.9-1.3,6.83,6.83,0,0,1-2.44-2.07,4.73,4.73,0,0,1-.84-2.77,3.68,3.68,0,0,1,.61-2,8,8,0,0,1,1.57-1.75,18.43,18.43,0,0,1,2.13-1.55L259,39.21v-.11a8.39,8.39,0,0,1-4.24-1.65,4.28,4.28,0,0,1-1-5.27,6,6,0,0,1,1.36-1.69,7.58,7.58,0,0,1,2-1.25,8.9,8.9,0,0,1,2.5-.66v-.16a8.24,8.24,0,0,1-3.69-2.74,7.4,7.4,0,0,1-1.32-4.5,6.8,6.8,0,0,1,.79-3.21,8.29,8.29,0,0,1,2.19-2.62,10.71,10.71,0,0,1,3.3-1.76,13,13,0,0,1,4.17-.65q1,0,1.9.08a12,12,0,0,1,1.72.28,12.69,12.69,0,0,1,1.65.51,14.39,14.39,0,0,1,1.69.79,7.16,7.16,0,0,0,1.11.28,7.75,7.75,0,0,0,1.11.07,3.14,3.14,0,0,0,1.16-.2,9.5,9.5,0,0,0,.95-.43q.45-.24.92-.43a2.94,2.94,0,0,1,1.13-.2,2,2,0,0,1,1.51.66A2.25,2.25,0,0,1,280.48,15.91Zm-5.24,28.39a5.24,5.24,0,0,0-.66-2.7A3.86,3.86,0,0,0,273,40a7.07,7.07,0,0,0-1.3-.54,11.68,11.68,0,0,0-1.66-.37q-.93-.15-2.15-.21t-2.77-.07a19.19,19.19,0,0,0-2.32.14q-1.18.14-1.95.28a7.72,7.72,0,0,0-2.13.84,4.91,4.91,0,0,0-1.38,1.2,4.33,4.33,0,0,0-.74,1.46,6,6,0,0,0-.22,1.63,5,5,0,0,0,.43,2.09A6.4,6.4,0,0,0,258,48.23a7.93,7.93,0,0,0,1.67,1.36,12.26,12.26,0,0,0,4,1.57,10.21,10.21,0,0,0,1.92.2,21.05,21.05,0,0,0,2.79-.16,9.79,9.79,0,0,0,2.08-.5,7.31,7.31,0,0,0,1.8-1,7.67,7.67,0,0,0,1.51-1.45,6.86,6.86,0,0,0,1-1.83A6,6,0,0,0,275.24,44.29ZM270.5,20.73a9.23,9.23,0,0,0-.37-2.62,6.71,6.71,0,0,0-1.09-2.2,5.33,5.33,0,0,0-1.83-1.51,5.59,5.59,0,0,0-2.58-.57,4.74,4.74,0,0,0-2.46.63,5.71,5.71,0,0,0-1.79,1.67,8,8,0,0,0-1.11,2.37,9.91,9.91,0,0,0-.38,2.75,9,9,0,0,0,.45,2.92,7.18,7.18,0,0,0,1.22,2.26,5.65,5.65,0,0,0,1.8,1.47,4.77,4.77,0,0,0,2.21.53,5,5,0,0,0,2.55-.65A5.8,5.8,0,0,0,269,26.07a8,8,0,0,0,1.13-2.46A10.77,10.77,0,0,0,270.5,20.73Z"/><path class="cls-1" d="M302.66,30.81a9.13,9.13,0,0,1-1,2.67,11.15,11.15,0,0,1-5.15,4.83,9.28,9.28,0,0,1-4,.84,11.37,11.37,0,0,1-8.86-4,13.52,13.52,0,0,1-2.46-4.36,16,16,0,0,1-.87-5.31,13.32,13.32,0,0,1,.8-4.53,13,13,0,0,1,2.3-4A11.76,11.76,0,0,1,287,14,10.08,10.08,0,0,1,291.76,13a14,14,0,0,1,4,.54,9.43,9.43,0,0,1,3.23,1.65,8.34,8.34,0,0,1,2.25,2.78,10.12,10.12,0,0,1,1,3.94h-17.3q0,.4-.05,1T284.81,24a14.9,14.9,0,0,0,.63,4.37,10.74,10.74,0,0,0,1.9,3.64,9.33,9.33,0,0,0,3.13,2.51,9.64,9.64,0,0,0,4.37.94,8.54,8.54,0,0,0,2.54-.37,8.13,8.13,0,0,0,2.16-1,7.59,7.59,0,0,0,1.66-1.51,5.63,5.63,0,0,0,1-1.87Zm-5.77-12.1a5,5,0,0,0-.36-1.87,4.65,4.65,0,0,0-1-1.57,4.82,4.82,0,0,0-1.61-1.06,5.46,5.46,0,0,0-2.09-.38,4.4,4.4,0,0,0-1.88.41,6.54,6.54,0,0,0-1.62,1.07A9.61,9.61,0,0,0,287,16.78a11.53,11.53,0,0,0-1,1.62,12.75,12.75,0,0,0-.66,1.53,5.73,5.73,0,0,0-.3,1.17h2.2l1.95,0,2,0,2.26,0q.79,0,1.5-.05a4.15,4.15,0,0,0,1.24-.27,4,4,0,0,0,.57-.82A2.63,2.63,0,0,0,296.9,18.71Z"/><path class="cls-1" d="M323,15.8a3.19,3.19,0,0,1-.18,1.11,2.82,2.82,0,0,1-.5.87,2.34,2.34,0,0,1-.74.58,2,2,0,0,1-.89.21,2.7,2.7,0,0,1-1.4-.3,4.93,4.93,0,0,1-.88-.67,6.7,6.7,0,0,0-.82-.67,2,2,0,0,0-1.17-.3,2.15,2.15,0,0,0-1.3.46A5.6,5.6,0,0,0,314,18.25a10.61,10.61,0,0,0-1,1.58q-.43.87-.75,1.69V37.05a1.32,1.32,0,0,0,.71.75,4.65,4.65,0,0,0,1.21.37q.68.12,1.4.17t1.26.13V39H304.75v-.53A7.32,7.32,0,0,0,306.9,38a1.28,1.28,0,0,0,.88-1.22V18.51a2.17,2.17,0,0,0-.08-.66,1,1,0,0,0-.45-.47l-1.15-.67a12.42,12.42,0,0,0-1.3-.67V15.7L311.89,13h.32l-.11,7.48h.11l.51-1.15q.33-.72.79-1.55a18.3,18.3,0,0,1,1.07-1.69A8.9,8.9,0,0,1,316,14.51a7,7,0,0,1,1.72-1.12,4.93,4.93,0,0,1,2.08-.43,3.71,3.71,0,0,1,1.25.21,3.14,3.14,0,0,1,1,.59,3,3,0,0,1,.7.9A2.48,2.48,0,0,1,323,15.8Z"/></svg>