<?xml version="1.0" encoding="UTF-8"?>
<svg enable-background="new 0 0 323 52.6" version="1.1" viewBox="0 0 323 52.6" xml:space="preserve" xmlns="http://www.w3.org/2000/svg">
<title>Artboard 1</title>
<path d="m31.9 39v-0.6c0.7 0 1.4-0.1 2.1-0.3 0.6-0.2 1.2-0.4 1.8-0.7 0.5-0.2 0.9-0.5 1.3-0.9 0.3-0.3 0.6-0.7 0.8-1.1 0.2-0.6 0.4-1.1 0.5-1.7 0.1-0.7 0.2-1.4 0.2-2.2v-3.5s0-2.2 0-3.3v-3.3-18.6l-12.3 27.7-0.5 1-0.6 1.4-0.7 1.6-0.6 1.5-0.5 1.2c-0.1 0.4-0.2 0.6-0.3 0.8h-0.3c-1.1-2.7-2.3-5.3-3.4-7.9s-2.3-5.1-3.3-7.5l-3-6.8c-0.9-2.1-1.8-4-2.5-5.7l-2-4.1-1-2.3v4.3s0 2.6 0 3.8v3.6s0 2.4 0 3.6 0 2.6 0 4.1v4.8c0 1.7 0 3.1 0.1 4.4 0.1 1.1 0.3 2.1 0.8 3.1 0.4 0.9 1.1 1.6 2 2 1.1 0.6 2.4 0.9 3.7 1v0.6h-14.2v-0.5c1.1-0.2 2.1-0.6 3.1-1.1 0.8-0.5 1.5-1.2 1.9-2 0.5-1 0.9-2.1 1-3.2 0.2-1.6 0.3-3.1 0.4-4.7 0.1-1.5 0.1-3.4 0.1-5.5s0.1-4.4 0.1-6.8v-4.7-2.1s0-1.6 0-2.7c0-0.9-0.2-1.7-0.7-2.4-0.4-0.6-0.8-1.1-1.4-1.5-0.5-0.4-1.1-0.6-1.7-0.8-0.7-0.1-1.2-0.2-1.6-0.3v-0.5h11.5l12.9 29.4c1.1-2.3 2.1-4.6 3.1-6.9s2-4.5 3-6.6c0.9-2.1 1.8-4.1 2.6-6l2.1-4.9 1.5-3.4c0.4-0.9 0.6-1.4 0.7-1.6h11.5v0.6c-0.7 0-1.3 0.1-1.9 0.3-0.5 0.1-1 0.4-1.4 0.6-0.4 0.3-0.7 0.6-1 1-0.3 0.3-0.5 0.7-0.6 1.1l-0.3 1.2c-0.1 0.5-0.1 1.1-0.2 1.7 0 0.6-0.1 1.2-0.1 1.9v1.9 5 10.7 6.1c0 0.7 0 1.4 0.1 2.1 0.1 0.6 0.2 1.1 0.5 1.7 0.1 0.2 0.2 0.4 0.4 0.5 0.3 0.3 0.6 0.6 1 0.8 0.5 0.3 1.1 0.6 1.6 0.8 0.7 0.3 1.5 0.4 2.3 0.4v0.4h-18.6z"/>
<path d="m76.2 25.8c0 1.8-0.3 3.6-1 5.2-0.6 1.6-1.6 3-2.8 4.3-1.1 1.2-2.5 2.2-4 2.9s-3.2 1.1-4.8 1.1c-1 0-2-0.1-2.9-0.4-2.1-0.5-4.1-1.5-5.7-2.9-0.9-0.8-1.6-1.6-2.2-2.6-0.6-1.1-1.1-2.2-1.5-3.4-0.4-1.4-0.6-2.8-0.6-4.2 0-1.6 0.3-3.3 0.9-4.8s1.5-2.9 2.6-4.1c3.6-3.7 9-4.9 13.8-3.1 1.5 0.5 2.8 1.4 4 2.4 1.3 1.1 2.3 2.5 3 4 0.9 1.7 1.3 3.6 1.2 5.6zm-5-0.1c0-0.9-0.1-1.7-0.2-2.6s-0.3-1.8-0.6-2.7-0.6-1.7-1-2.5-0.9-1.5-1.4-2.1c-0.6-0.6-1.2-1.1-2-1.5s-1.7-0.6-2.6-0.5c-1.2 0-2.3 0.4-3.2 1.1-1 0.8-1.8 1.7-2.4 2.8-0.7 1.2-1.2 2.6-1.5 4-0.4 1.5-0.5 3-0.5 4.5 0 1.6 0.1 3.1 0.5 4.7 0.3 1.4 0.7 2.7 1.4 3.9 0.6 1.1 1.4 2 2.4 2.7 1.1 0.7 2.3 1 3.6 1 0.9 0 1.7-0.2 2.5-0.6 0.7-0.4 1.4-0.9 1.9-1.6 0.6-0.7 1.1-1.4 1.4-2.2 0.4-0.9 0.7-1.8 1-2.7 0.2-0.9 0.4-1.9 0.5-2.9s0.2-1.9 0.2-2.8z"/>
<path d="m77.9 39v-0.6c0.8-0.1 1.5-0.1 2-0.2l1.2-0.3c0.3-0.1 0.5-0.3 0.7-0.5 0.1-0.2 0.2-0.5 0.2-0.7v-31-0.7c-0.1-0.2-0.3-0.4-0.4-0.5l-0.6-0.4-1-0.4-0.9-0.5c-0.3-0.1-0.5-0.3-0.8-0.4v-0.3l7.8-2.5h0.4v37c0 0.3 0.1 0.6 0.2 0.8 0.2 0.2 0.4 0.3 0.7 0.4 0.4 0.1 0.8 0.1 1.2 0.1 0.5 0 1.1 0 1.8 0.1v0.6h-12.5z"/>
<path d="m93.3 39v-0.6c0.8-0.1 1.5-0.1 2-0.2l1.2-0.3c0.3-0.1 0.5-0.3 0.7-0.5 0.1-0.2 0.2-0.5 0.2-0.7v-31c0-0.2 0-0.5-0.1-0.7s-0.3-0.4-0.4-0.5l-0.6-0.4-0.8-0.5-0.9-0.5c-0.3-0.1-0.5-0.3-0.8-0.4v-0.2l7.7-2.5h0.4v37c0 0.3 0.1 0.6 0.2 0.8 0.2 0.2 0.4 0.3 0.7 0.4 0.4 0.1 0.8 0.1 1.2 0.1 0.5 0 1.1 0 1.8 0.1v0.6h-12.5z"/>
<path d="m99.7 51.6c-0.5 0-1-0.1-1.5-0.2-0.4-0.1-0.8-0.3-1.2-0.6-0.3-0.2-0.6-0.5-0.7-0.9-0.2-0.3-0.3-0.7-0.3-1s0-0.5 0.1-0.8 0.2-0.5 0.4-0.7 0.4-0.4 0.7-0.5 0.6-0.2 0.9-0.2c0.5 0 0.9 0.1 1.3 0.5 0.3 0.3 0.6 0.6 0.9 1s0.5 0.7 0.8 1c0.2 0.3 0.6 0.5 0.9 0.5 1.1 0 2.2-0.3 3.2-0.9 1.1-0.6 2.1-1.3 3-2.2 0.9-0.8 1.7-1.7 2.5-2.7 0.6-0.8 1.1-1.6 1.5-2.5 0.2-2.7 0.4-5.1 0.6-7.3s0.2-4.3 0.2-6.2v-2.9-2.4c0-0.8 0-1.6-0.1-2.4s-0.1-1.7-0.2-2.7c-0.1-0.4-0.2-0.6-0.5-0.6-0.2 0-0.4 0.1-0.7 0.5-0.4 0.4-0.8 0.8-1.1 1.2-0.4 0.5-0.9 1.1-1.4 1.8s-1.1 1.4-1.7 2.2l-0.4-0.4c0.8-1.3 1.6-2.6 2.4-3.7 0.7-1 1.5-1.9 2.3-2.8 0.6-0.7 1.3-1.3 2.1-1.8 0.5-0.4 1.1-0.6 1.7-0.7 0.3 0 0.6 0.1 0.8 0.4 0.2 0.4 0.3 0.8 0.4 1.2 0.1 0.3 0.1 0.7 0.2 1.4s0.1 1.4 0.2 2.3 0.1 1.8 0.2 2.8c0 1 0.1 1.9 0.1 2.8 0 1.8 0 3.7-0.1 5.8s-0.2 4.5-0.6 7.2c1-1.4 2-2.9 2.9-4.4s1.7-3.1 2.4-4.7c0.7-1.4 1.2-2.9 1.7-4.4 0.4-1.2 0.6-2.4 0.6-3.6 0-0.5-0.1-1.1-0.2-1.6-0.1-0.4-0.3-0.7-0.4-1.1-0.2-0.3-0.3-0.6-0.4-1s-0.2-0.8-0.2-1.2c0-0.5 0.2-1.1 0.6-1.4s0.9-0.5 1.4-0.5c0.7 0 1.3 0.2 1.8 0.7 0.4 0.5 0.6 1.2 0.6 1.9s-0.1 1.5-0.2 2.2c-0.3 1.1-0.6 2.2-1 3.2-0.5 1.5-1.1 2.9-1.8 4.3s-1.4 2.9-2.2 4.4-1.7 3-2.8 4.6c-1 1.6-2.2 3.3-3.5 5.1-1.4 1.9-2.9 3.7-4.5 5.4-1.3 1.4-2.8 2.6-4.3 3.8-1.2 0.9-2.5 1.6-3.8 2.2-1.4 0.3-2.5 0.5-3.6 0.6z"/>
<path d="m175.9 0.7c-1.7 0.2-3.4 1-4.6 2.2-0.6 0.6-1.2 1.3-1.7 2-0.6 0.8-1.2 1.7-1.8 2.7-0.3 0.4-0.7 1-1.1 1.7l-1.4 2.2-1.6 2.5-1.6 2.5-1.4 2.2-1.1 1.6v10.9 1.6s0 1 0.1 1.5c0 0.4 0.1 0.8 0.2 1.2 0.1 0.3 0.2 0.6 0.3 0.8 0.3 0.4 0.6 0.7 0.9 1l1.2 0.6c0.4 0.2 0.8 0.3 1.2 0.4l1.2 0.2v0.5h-16.7v-0.5c0.5-0.1 0.9-0.1 1.3-0.2s0.8-0.1 1.2-0.3 0.8-0.4 1.1-0.6c0.4-0.3 0.8-0.7 1.1-1.1 0.2-0.3 0.4-0.6 0.4-0.9 0.1-0.5 0.2-1 0.2-1.5 0.1-0.5 0.1-1.1 0.1-1.7v-1.8c0-1 0.1-2.2 0.1-3.6v-5l-0.6-1-1.3-2.1-1.7-2.8-1.9-3-1.7-2.9-1.3-2.2c-0.7-1.1-1.3-2-1.9-2.9-0.5-0.8-1.1-1.5-1.7-2.2-0.5-0.6-1.1-1.1-1.7-1.5s-1.3-0.6-2-0.6v-0.4h16.4v0.5l-1.6 0.2-1.5 0.3c-0.4 0.1-0.8 0.4-1.1 0.6-0.3 0.3-0.5 0.7-0.4 1.2 0 0.3 0.1 0.6 0.2 0.9 0.1 0.4 0.3 0.8 0.6 1.2s0.5 0.9 0.8 1.4l0.9 1.5 1.4 2.4 1.8 2.9 1.9 3.1 1.9 3.1 1.1-1.6 1.3-2 1.4-2.2 1.3-2.2 1.2-1.9 0.9-1.5 0.6-1 0.6-1.2c0.2-0.4 0.4-0.8 0.5-1.3 0.1-0.4 0.2-0.8 0.2-1.2 0-0.5-0.1-1-0.4-1.3s-0.7-0.6-1.1-0.8c-0.5-0.2-1-0.3-1.5-0.4l-1.5-0.3v-0.4h12.5v0.5z"/>
<path d="m193 25.8c0 1.8-0.3 3.6-1 5.2-0.6 1.6-1.6 3-2.8 4.3-1.1 1.2-2.5 2.2-4 2.9s-3.2 1.1-4.9 1.1c-1 0-2-0.1-2.9-0.4-2.1-0.5-4-1.5-5.7-2.9-0.9-0.8-1.6-1.6-2.2-2.6-0.7-1.1-1.2-2.2-1.5-3.4-0.4-1.4-0.6-2.8-0.6-4.2 0-1.6 0.3-3.3 0.9-4.8s1.5-2.9 2.6-4.1c3.6-3.7 9-4.9 13.8-3.1 1.5 0.5 2.8 1.4 4 2.4 1.3 1.1 2.3 2.5 3 4 1 1.7 1.3 3.6 1.3 5.6zm-5-0.1c0-0.9-0.1-1.7-0.2-2.6s-0.3-1.8-0.6-2.7-0.6-1.7-1-2.5-0.9-1.5-1.5-2.1-1.2-1.1-2-1.5-1.7-0.6-2.6-0.5c-1.2 0-2.3 0.4-3.2 1.1-1 0.8-1.8 1.7-2.4 2.8-0.7 1.2-1.2 2.6-1.5 4-0.4 1.5-0.5 3-0.5 4.4 0 1.6 0.1 3.1 0.5 4.7 0.3 1.4 0.7 2.7 1.4 3.9 0.6 1.1 1.4 2 2.4 2.7 1.1 0.7 2.3 1 3.6 1 0.9 0 1.7-0.2 2.5-0.6 0.7-0.4 1.4-0.9 1.9-1.6 0.6-0.7 1-1.4 1.4-2.2 0.4-0.9 0.7-1.8 1-2.7s0.4-1.9 0.6-2.8 0.2-1.9 0.2-2.8z"/>
<path d="m214.1 39.2h-0.4v-5.6h-0.1c-0.4 0.7-0.9 1.3-1.4 1.9-0.6 0.7-1.3 1.3-2 1.9s-1.6 1-2.4 1.4c-0.9 0.4-1.9 0.5-2.8 0.5-1.9 0.2-3.8-0.6-5.1-2.1-1.2-1.8-1.8-3.9-1.6-6v-13.2-0.6s0-0.5 0-0.8 0-0.5-0.1-0.7c0-0.2-0.1-0.3-0.1-0.5-0.1-0.3-0.3-0.5-0.6-0.7s-0.6-0.3-0.9-0.3c-0.3-0.1-0.7-0.1-1-0.1-0.4 0-0.7 0-1-0.1v-0.7h8.4v15.7c0 1 0.1 2.1 0.2 3.1 0.1 0.8 0.4 1.5 0.8 2.2 0.4 0.6 0.9 1 1.6 1.3 0.8 0.3 1.6 0.4 2.5 0.4 1.2 0 2.5-0.3 3.5-1 0.4-0.3 0.8-0.7 1.1-1.1 0.4-0.4 0.7-0.8 1.1-1.2v-15.4-0.6s0-0.5-0.1-0.7c0-0.2-0.1-0.5-0.2-0.7s-0.1-0.4-0.3-0.6c-0.6-0.2-1.2-0.4-1.8-0.4l-2.3-0.3v-0.7h9.1v21.3c0 0.2 0 0.4 0.1 0.7 0.1 0.2 0.3 0.4 0.5 0.5l0.6 0.3 0.8 0.4 0.8 0.3 0.7 0.3v0.3l-7.6 1.6z"/>
<path d="m239.7 39v-0.6c0.8 0 1.6-0.1 2.3-0.3 0.5-0.1 0.9-0.6 0.9-1.1v-13.6c0-1-0.1-1.9-0.3-2.8-0.2-0.8-0.5-1.5-0.9-2.2-0.4-0.6-1-1.1-1.6-1.4-0.7-0.4-1.6-0.5-2.4-0.5-0.5 0-1.1 0.1-1.6 0.2s-0.9 0.3-1.4 0.6-0.9 0.6-1.3 0.9c-0.4 0.4-0.9 0.8-1.4 1.3v17.5c0 0.3 0.2 0.6 0.4 0.8s0.4 0.3 0.6 0.4c0.3 0.1 0.6 0.1 0.9 0.1s0.7 0 1 0.1v0.6h-10.4v-0.5c0.7-0.1 1.5-0.2 2.1-0.5 0.5-0.2 0.9-0.7 0.9-1.2v-18.6c0-0.2 0-0.4-0.1-0.6s-0.3-0.4-0.4-0.5c-0.3-0.2-0.7-0.4-1.1-0.6s-0.9-0.4-1.3-0.6v-0.3l7.1-2.5h0.3v5.8h0.1c0.4-0.7 0.9-1.4 1.5-2 0.6-0.7 1.3-1.3 2-1.9 0.8-0.6 1.6-1.1 2.5-1.4 0.9-0.4 1.8-0.6 2.8-0.6s1.9 0.2 2.8 0.6c0.8 0.4 1.5 1 2 1.7 0.6 0.8 1.1 1.7 1.4 2.6 0.3 1.1 0.4 2.2 0.4 3.3v15.9c0 0.3 0.1 0.5 0.3 0.7 0.3 0.2 0.5 0.3 0.8 0.4 0.4 0.1 0.7 0.2 1.1 0.2l1.1 0.2v0.4h-11.1z"/>
<path d="m280.5 15.9c0 0.5-0.2 1.1-0.6 1.4-0.3 0.4-0.9 0.6-1.4 0.6-0.3 0-0.7-0.1-1-0.3-0.4-0.2-0.9-0.4-1.4-0.6-0.5-0.3-1-0.5-1.6-0.8-0.5-0.3-1-0.6-1.5-0.8l-0.2 0.2 0.8 1.2 0.6 1.2c0.2 0.4 0.3 0.8 0.4 1.3s0.2 1 0.2 1.5c0 1.3-0.2 2.6-0.8 3.7-0.5 1.1-1.3 2-2.2 2.7-1.1 0.8-2.3 1.3-3.5 1.6-1.5 0.4-3.1 0.5-4.6 0.5-0.5 0-1 0-1.5-0.1-0.6-0.1-1.2-0.1-1.9-0.1-1 0-1.9 0.3-2.8 0.8-0.6 0.4-1 1-1 1.8 0 0.5 0.2 1 0.5 1.4 0.4 0.4 0.8 0.7 1.3 0.9 0.6 0.2 1.2 0.4 1.8 0.5s1.3 0.1 1.9 0.1h8.6c1.2 0 2.3 0.2 3.4 0.6 1 0.4 1.8 0.9 2.6 1.6 0.7 0.7 1.3 1.5 1.6 2.4 0.4 1 0.6 2 0.6 3 0 1.4-0.4 2.8-1 4-0.7 1.3-1.7 2.4-2.9 3.3-1.3 1-2.8 1.8-4.5 2.3-1.8 0.6-3.7 0.9-5.6 0.8-1.8 0-3.5-0.1-5.2-0.5-1.4-0.2-2.7-0.7-3.9-1.3-1-0.5-1.8-1.2-2.4-2.1-0.6-0.8-0.9-1.8-0.8-2.8 0-0.7 0.2-1.4 0.6-2 0.4-0.7 1-1.2 1.6-1.8 0.7-0.6 1.4-1.1 2.1-1.5l2.3-1.4v-0.1c-1.5-0.1-3-0.7-4.2-1.7-1.5-1.3-1.9-3.5-1-5.3 0.3-0.6 0.8-1.2 1.4-1.7s1.3-0.9 2-1.2c0.8-0.3 1.6-0.6 2.5-0.7v-0.2c-1.5-0.5-2.7-1.5-3.7-2.7-0.9-1.3-1.4-2.9-1.3-4.5 0-1.1 0.3-2.2 0.8-3.2s1.3-1.9 2.2-2.6c1-0.8 2.1-1.4 3.3-1.8 1.3-0.4 2.8-0.7 4.2-0.6 0.7 0 1.3 0 1.9 0.1s1.2 0.1 1.7 0.3c0.6 0.1 1.1 0.3 1.6 0.5 0.6 0.2 1.1 0.5 1.7 0.8 0.4 0.1 0.7 0.2 1.1 0.3 0.4 0 0.7 0.1 1.1 0.1s0.8-0.1 1.2-0.2c0.3-0.1 0.6-0.3 1-0.4 0.3-0.2 0.6-0.3 0.9-0.4 0.4-0.1 0.7-0.2 1.1-0.2 0.6 0 1.1 0.2 1.5 0.7 0.2 0.3 0.4 0.8 0.4 1.4zm-5.3 28.4c0-0.9-0.2-1.9-0.7-2.7-0.4-0.7-0.9-1.2-1.6-1.6-0.4-0.2-0.8-0.4-1.3-0.5-0.5-0.2-1.1-0.3-1.7-0.4s-1.3-0.2-2.1-0.2-1.7-0.1-2.8-0.1c-0.8 0-1.6 0-2.3 0.1-0.8 0.1-1.4 0.2-2 0.3-0.7 0.2-1.5 0.5-2.1 0.8-0.5 0.3-1 0.7-1.4 1.2-0.3 0.4-0.6 0.9-0.7 1.5-0.1 0.5-0.2 1.1-0.2 1.6 0 0.7 0.1 1.4 0.4 2.1s0.7 1.3 1.2 1.8 1.1 1 1.7 1.4c1.2 0.8 2.6 1.3 4 1.6 0.6 0.1 1.3 0.2 1.9 0.2 0.9 0 1.9 0 2.8-0.2 0.7-0.1 1.4-0.3 2.1-0.5 0.6-0.2 1.3-0.6 1.8-1 0.6-0.4 1.1-0.9 1.5-1.5s0.8-1.2 1-1.8c0.4-0.7 0.5-1.4 0.5-2.1zm-4.7-23.6c0-0.9-0.1-1.8-0.4-2.6-0.2-0.8-0.6-1.5-1.1-2.2-0.5-0.6-1.1-1.2-1.8-1.5-0.8-0.4-1.7-0.6-2.6-0.6s-1.7 0.2-2.5 0.6c-0.7 0.4-1.3 1-1.8 1.7s-0.9 1.5-1.1 2.4c-0.3 0.9-0.4 1.8-0.4 2.8s0.1 2 0.5 2.9c0.3 0.8 0.7 1.6 1.2 2.3 0.5 0.6 1.1 1.1 1.8 1.5s1.4 0.5 2.2 0.5c0.9 0 1.8-0.2 2.5-0.6s1.4-1 1.9-1.7 0.9-1.6 1.1-2.5c0.4-1 0.5-2 0.5-3z"/>
<path d="m302.7 30.8c-0.2 0.9-0.5 1.8-1 2.7-1.1 2.1-3 3.8-5.1 4.8-1.3 0.6-2.6 0.9-4 0.8-3.4 0.1-6.7-1.4-8.9-4-1.1-1.3-1.9-2.8-2.5-4.4-0.6-1.7-0.9-3.5-0.9-5.3 0-1.5 0.3-3.1 0.8-4.5 0.5-1.5 1.3-2.8 2.3-4s2.2-2.2 3.6-2.9c1.5-0.7 3.1-1.1 4.8-1 1.4 0 2.7 0.2 4 0.5 1.2 0.3 2.3 0.9 3.2 1.6 0.9 0.8 1.7 1.7 2.2 2.8 0.6 1.2 0.9 2.6 1 3.9h-17.3v1s-0.1 0.8-0.1 1.1c0 1.5 0.2 3 0.6 4.4 0.4 1.3 1 2.6 1.9 3.6 0.8 1.1 1.9 1.9 3.1 2.5 1.4 0.7 2.9 1 4.4 0.9 0.9 0 1.7-0.1 2.5-0.4 0.8-0.2 1.5-0.6 2.2-1 0.6-0.4 1.2-0.9 1.7-1.5 0.4-0.6 0.8-1.2 1-1.9l0.5 0.3zm-5.8-12.1c0-0.6-0.1-1.3-0.4-1.9-0.2-0.6-0.6-1.1-1-1.6-0.5-0.5-1-0.8-1.6-1.1-0.7-0.3-1.4-0.4-2.1-0.4-0.6 0-1.3 0.1-1.9 0.4s-1.1 0.6-1.6 1.1c-0.5 0.4-0.9 0.9-1.3 1.5-0.4 0.5-0.7 1.1-1 1.6s-0.5 1-0.7 1.5l-0.3 1.2h8.5 1.5c0.4 0 0.8-0.1 1.2-0.3 0.2-0.2 0.4-0.5 0.6-0.8 0.1-0.3 0.2-0.8 0.1-1.2z"/>
<path d="m323 15.8c0 0.4-0.1 0.8-0.2 1.1s-0.3 0.6-0.5 0.9c-0.2 0.2-0.5 0.4-0.7 0.6-0.3 0.1-0.6 0.2-0.9 0.2-0.5 0-1-0.1-1.4-0.3-0.3-0.2-0.6-0.4-0.9-0.7-0.3-0.2-0.5-0.5-0.8-0.7s-0.8-0.3-1.2-0.3c-0.5 0-0.9 0.2-1.3 0.5s-0.8 0.7-1.1 1.2c-0.4 0.5-0.7 1-1 1.6s-0.5 1.1-0.8 1.7v15.4c0.1 0.3 0.4 0.6 0.7 0.8 0.4 0.2 0.8 0.3 1.2 0.4 0.5 0.1 0.9 0.1 1.4 0.2 0.5 0 0.9 0.1 1.3 0.1v0.5h-12.1v-0.5c0.7 0 1.5-0.2 2.1-0.5 0.5-0.2 0.9-0.7 0.9-1.2v-18.3c0-0.2 0-0.4-0.1-0.7-0.1-0.2-0.3-0.4-0.5-0.5l-1.1-0.7c-0.4-0.2-0.9-0.5-1.3-0.7v-0.3l7.1-2.7h0.3l-0.1 7.5h0.1l0.5-1.1c0.2-0.5 0.5-1 0.8-1.5 0.3-0.6 0.7-1.1 1.1-1.7s0.9-1.1 1.4-1.6 1.1-0.8 1.7-1.1c0.7-0.3 1.4-0.4 2.1-0.4 0.4 0 0.8 0.1 1.2 0.2s0.7 0.3 1 0.6 0.5 0.6 0.7 0.9c0.3 0.3 0.4 0.7 0.4 1.1z"/>
</svg>
